<svg width="22" height="26" viewBox="0 0 22 26" fill="none" xmlns="http://www.w3.org/2000/svg">
  <path d="M18.2406 13.8093C18.275 17.4773 21.4554 18.6988 21.4922 18.7159C21.4653 18.8018 20.9841 20.4658 19.8411 22.1839C18.8531 23.6695 17.8283 25.149 16.2128 25.1783C14.6266 25.2064 14.117 24.2302 12.3054 24.2302C10.4938 24.2302 9.92798 25.149 8.42897 25.2064C6.86985 25.2649 5.68494 23.6331 4.68955 22.1534C2.65922 19.1301 1.10742 13.6174 3.19297 9.82676C4.22908 7.94463 6.07941 6.75195 8.08658 6.72388C9.61695 6.6958 11.0626 7.75822 11.9958 7.75822C12.929 7.75822 14.6776 6.47969 16.5243 6.66651C17.2974 6.69803 19.4683 6.97726 20.8612 9.04832C20.7496 9.11853 18.2148 10.6034 18.2406 13.8093Z" fill="#FFFFFF"/>
  <path d="M15.3168 4.76449C16.1431 3.77108 16.6997 2.38953 16.5476 1C15.3566 1.0485 13.9215 1.79631 13.0682 2.78849C12.302 3.67382 11.6311 5.08478 11.8141 6.44558C13.1415 6.5498 14.4906 5.75987 15.3168 4.76449Z" fill="#FFFFFF"/>
</svg>
