<svg width="24" height="24" viewBox="0 0 24 24" fill="none" xmlns="http://www.w3.org/2000/svg">
  <path d="M21.8055 12.2273C21.8055 11.4091 21.7319 10.6227 21.5955 9.86365H12V13.7909H17.4818C17.2455 15.0636 16.5273 16.1409 15.45 16.8591V19.4045H18.7273C20.6455 17.6364 21.8055 15.0364 21.8055 12.2273Z" fill="#4285F4"/>
  <path d="M12 22C14.7546 22 17.0636 21.0864 18.7273 19.4045L15.45 16.8591C14.5364 17.4682 13.3727 17.8318 12 17.8318C9.34091 17.8318 7.09091 16.0364 6.28636 13.6182H2.9V16.2455C4.55455 19.5318 7.95455 22 12 22Z" fill="#34A853"/>
  <path d="M6.28636 13.6182C6.08182 13.0091 5.96364 12.3591 5.96364 11.6818C5.96364 11.0045 6.08182 10.3545 6.28636 9.74545V7.11816H2.9C2.21818 8.47725 1.81818 10.0091 1.81818 11.6818C1.81818 13.3545 2.21818 14.8864 2.9 16.2455L6.28636 13.6182Z" fill="#FBBC05"/>
  <path d="M12 5.53182C13.5 5.53182 14.8455 6.04546 15.9046 7.05455L18.8 4.15909C17.0591 2.53636 14.75 1.54546 12 1.54546C7.95455 1.54546 4.55455 4.01364 2.9 7.11818L6.28636 9.74546C7.09091 7.32728 9.34091 5.53182 12 5.53182Z" fill="#EA4335"/>
</svg>
